<svg width="24" height="24" viewBox="0 0 24 24" fill="none" xmlns="http://www.w3.org/2000/svg">
<g id="person-circle-fill">
<path id="Vector" d="M11.9991 1.95319C6.47618 1.95319 2.01778 6.43018 1.99908 11.9532C1.98038 17.4682 6.48078 21.9732 11.9991 21.9842C17.5174 21.9952 22.009 17.4292 21.9991 11.9532C21.9891 6.43018 17.5219 1.95319 11.9991 1.95319ZM11.9991 3.95318C16.4174 3.95318 19.999 7.53518 19.9991 11.9532C19.9991 14.2032 19.0619 16.2312 17.5669 17.6852C16.8305 16.0922 15.2486 14.9532 13.4366 14.9532C13.0772 14.9532 10.9208 14.9532 10.5616 14.9532C8.75068 14.9532 7.17338 16.0782 6.43658 17.6722C4.94158 16.2182 3.99908 14.2032 3.99908 11.9532C3.99908 7.53518 7.58078 3.95318 11.9991 3.95318ZM11.9991 5.95318C9.78988 5.95318 7.99898 7.74418 7.99908 9.95318C7.99908 12.1622 9.78988 13.9532 11.9991 13.9532C14.2082 13.9532 15.9992 12.1622 15.9991 9.95318C15.9991 7.74418 14.2082 5.95318 11.9991 5.95318Z" fill="#2A343D"/>
</g>
</svg>
