<svg width="24" height="24" viewBox="0 0 24 24" fill="none" xmlns="http://www.w3.org/2000/svg">
<g id="person-lines-fill">
<path id="Vector" d="M8.51416 2.92975C6.02916 2.92975 4.01416 4.94445 4.01416 7.42975C4.01416 9.91505 6.02916 11.9297 8.51416 11.9297C10.9992 11.9297 13.0142 9.91505 13.0142 7.42975C13.0142 4.94445 10.9992 2.92975 8.51416 2.92975ZM16.0142 6.92975C15.4622 6.92975 15.0142 7.37745 15.0142 7.92975C15.0142 8.48205 15.4622 8.92975 16.0142 8.92975H21.0142C21.5662 8.92975 22.0142 8.48205 22.0142 7.92975C22.0142 7.37745 21.5662 6.92975 21.0142 6.92975H16.0142ZM15.0142 10.9297C14.4622 10.9297 14.0142 11.3774 14.0142 11.9297C14.0142 12.482 14.4622 12.9297 15.0142 12.9297H21.0142C21.5662 12.9297 22.0142 12.482 22.0142 11.9297C22.0142 11.3774 21.5662 10.9297 21.0142 10.9297H15.0142ZM5.07616 13.2735C3.24216 14.0303 2.01416 15.8858 2.01416 17.9298V19.9298C2.01416 20.482 2.46216 20.9298 3.01416 20.9298H14.0142C14.5662 20.9298 15.0142 20.482 15.0142 19.9298V17.9298C15.0142 15.934 13.7792 14.1235 11.9522 13.3359C11.6942 13.2252 11.3952 13.2218 11.1392 13.3359C10.2542 13.7326 9.39216 13.9296 8.51416 13.9297C7.63916 13.9297 6.77415 13.7218 5.85815 13.3047C5.60615 13.1901 5.33216 13.1682 5.07616 13.2735ZM18.0142 14.9298C17.4622 14.9298 17.0142 15.3774 17.0142 15.9298C17.0142 16.482 17.4622 16.9298 18.0142 16.9298H21.0142C21.5662 16.9298 22.0142 16.482 22.0142 15.9298C22.0142 15.3774 21.5662 14.9298 21.0142 14.9298H18.0142Z" fill="#2A343D"/>
</g>
</svg>
